<?xml version="1.0" encoding="UTF-8"?>
<svg width="1000px" height="206px" viewBox="0 0 1000 206" version="1.1" xmlns="http://www.w3.org/2000/svg" xmlns:xlink="http://www.w3.org/1999/xlink">
    <!-- Generator: Sketch 52.1 (67048) - http://www.bohemiancoding.com/sketch -->
    <title>MB_Logo_Orange</title>
    <desc>Created with Sketch.</desc>
    <g id="MB-Logo-Inverted" stroke="none" stroke-width="1" fill="none" fill-rule="evenodd">
        <g id="Business-App" transform="translate(-50.000000, -35.000000)">
            <g id="MB_Logo_Orange" transform="translate(50.000000, 35.000000)">
                <g id="Group-3" transform="translate(203.263083, 23.973126)">
                    <path d="M0.317823893,47.2117911 L14.929912,47.2117911 L14.929912,53.0568234 C17.7425813,50.1121409 20.1464038,48.1211059 22.1374387,47.0817483 C24.2595016,46.0010133 26.9214395,45.4581829 30.1262077,45.4581829 C37.2696982,45.4581829 42.918681,48.5752707 47.0751265,54.8094464 C51.664063,48.5752707 57.8765648,45.4581829 65.7136172,45.4581829 C79.9562653,45.4581829 87.078082,54.0951959 87.078082,71.3692218 L87.078082,110.463848 L72.4019577,110.463848 L72.4019577,75.330603 C72.4019577,69.270803 71.6660333,64.9843146 70.1941847,62.4731083 C68.6789884,59.9185543 66.1884707,58.6417699 62.7265722,58.6417699 C58.7001696,58.6417699 55.766324,60.1579514 53.9260205,63.1873588 C52.0857171,66.2177514 51.1665506,71.0884474 51.1665506,77.7994469 L51.1665506,110.463848 L36.4904262,110.463848 L36.4904262,75.5256673 C36.4904262,64.2690789 33.2432955,58.6417699 26.7490342,58.6417699 C22.6349511,58.6417699 19.6370693,60.17864 17.7544034,63.2523802 C15.8707523,66.3261205 14.929912,71.1741575 14.929912,77.7994469 L14.929912,110.463848 L0.317823893,110.463848 L0.317823893,47.2117911 Z" id="Fill-1" fill="#FFFFFF"></path>
                    <path d="M114.810509,78.6430507 C114.810509,84.704821 116.434074,89.6405385 119.681205,93.4492178 C123.014046,97.3032152 127.214824,99.2292287 132.279599,99.2292287 C137.691155,99.2292287 142.063354,97.3682366 145.398165,93.6452673 C148.731006,89.79127 150.397918,84.8998853 150.397918,78.9671726 C150.397918,73.0374155 148.731006,68.1450456 145.398165,64.2920335 C142.063354,60.5237462 137.735488,58.6410803 132.409642,58.6410803 C127.387229,58.6410803 123.188421,60.5473903 119.811248,64.3560697 C116.476437,68.2100671 114.810509,72.9714089 114.810509,78.6430507 Z M149.488604,47.2120867 L164.165713,47.2120867 L164.165713,110.464143 L149.488604,110.464143 L149.488604,103.839839 C143.471166,109.468133 136.997593,112.282773 130.071826,112.282773 C121.325459,112.282773 114.096258,109.122337 108.382254,102.800481 C102.709627,96.3505528 99.8742989,88.2977475 99.8742989,78.6430507 C99.8742989,69.1617443 102.709627,61.2606557 108.382254,54.9397848 C114.051926,48.6189139 121.152069,45.4574933 129.682683,45.4574933 C137.040941,45.4574933 143.644557,48.4898562 149.488604,54.5496562 L149.488604,47.2120867 Z" id="Fill-3" fill="#FFFFFF"></path>
                    <path d="M216.705687,57.9919497 L204.626479,64.4202045 C202.721154,60.5238447 200.361664,58.5771426 197.54801,58.5771426 C196.205219,58.5771426 195.057492,59.0204705 194.1068,59.9071263 C193.153152,60.7957525 192.677314,61.9316571 192.677314,63.3168106 C192.677314,65.7423069 195.490968,68.1451442 201.120247,70.5263076 C208.868634,73.8591484 214.086111,76.9338738 216.769723,79.7465431 C219.45432,82.5611828 220.796125,86.3491735 220.796125,91.1115005 C220.796125,97.2156333 218.545005,102.324741 214.042764,106.437839 C209.66958,110.334199 204.388067,112.281886 198.197239,112.281886 C187.589879,112.281886 180.078919,107.108742 175.663373,96.7624536 L188.131725,90.9814576 C189.862674,94.0128354 191.183791,95.9398341 192.093106,96.7624536 C193.867403,98.4067076 195.989466,99.228342 198.457324,99.228342 C203.392057,99.228342 205.859915,96.9782066 205.859915,92.4749801 C205.859915,89.8770785 203.955576,87.4535526 200.144926,85.2014468 C198.673077,84.4665076 197.201229,83.7512719 195.72938,83.0586952 C194.257531,82.3671037 192.763024,81.6528531 191.248813,80.9169288 C187.005672,78.8382135 184.017642,76.7604833 182.286692,74.681768 C180.078919,72.0415039 178.97454,68.6426566 178.97454,64.4862111 C178.97454,58.9889449 180.858191,54.4423709 184.625493,50.8484593 C188.47752,47.2555328 193.153152,45.4575918 198.652389,45.4575918 C206.747556,45.4575918 212.764994,49.6376815 216.705687,57.9919497" id="Fill-5" fill="#FFFFFF"></path>
                    <path d="M268.010745,57.9919497 L255.931538,64.4202045 C254.026213,60.5238447 251.666723,58.5771426 248.854054,58.5771426 C247.510277,58.5771426 246.363536,59.0204705 245.411859,59.9071263 C244.459196,60.7957525 243.982372,61.9316571 243.982372,63.3168106 C243.982372,65.7423069 246.797012,68.1451442 252.425306,70.5263076 C260.174678,73.8591484 265.39117,76.9338738 268.075767,79.7465431 C270.759378,82.5611828 272.101184,86.3491735 272.101184,91.1115005 C272.101184,97.2156333 269.850064,102.324741 265.347822,106.437839 C260.974639,110.334199 255.693126,112.281886 249.503283,112.281886 C238.894938,112.281886 231.383978,107.108742 226.968432,96.7624536 L239.436784,90.9814576 C241.168718,94.0128354 242.489835,95.9398341 243.39915,96.7624536 C245.172462,98.4067076 247.29551,99.228342 249.763368,99.228342 C254.697116,99.228342 257.165959,96.9782066 257.165959,92.4749801 C257.165959,89.8770785 255.260635,87.4535526 251.45097,85.2014468 C249.978136,84.4665076 248.506288,83.7512719 247.035424,83.0586952 C245.56259,82.3671037 244.069068,81.6528531 242.553871,80.9169288 C238.311716,78.8382135 235.323686,76.7604833 233.591751,74.681768 C231.383978,72.0415039 230.280584,68.6426566 230.280584,64.4862111 C230.280584,58.9889449 232.16325,54.4423709 235.930552,50.8484593 C239.783564,47.2555328 244.459196,45.4575918 249.957448,45.4575918 C258.052615,45.4575918 264.071038,49.6376815 268.010745,57.9919497" id="Fill-7" fill="#FFFFFF"></path>
                    <path d="M294.50944,78.6430507 C294.50944,84.704821 296.13202,89.6405385 299.380136,93.4492178 C302.712977,97.3032152 306.913755,99.2292287 311.977545,99.2292287 C317.390086,99.2292287 321.762285,97.3682366 325.097096,93.6452673 C328.429937,89.79127 330.09685,84.8998853 330.09685,78.9671726 C330.09685,73.0374155 328.429937,68.1450456 325.097096,64.2920335 C321.762285,60.5237462 317.433434,58.6410803 312.108573,58.6410803 C307.08616,58.6410803 302.886367,60.5473903 299.509194,64.3560697 C296.175368,68.2100671 294.50944,72.9714089 294.50944,78.6430507 Z M329.187535,47.2120867 L343.864644,47.2120867 L343.864644,110.464143 L329.187535,110.464143 L329.187535,103.839839 C323.170097,109.468133 316.696524,112.282773 309.770757,112.282773 C301.02439,112.282773 293.794204,109.122337 288.0802,102.800481 C282.408558,96.3505528 279.57323,88.2977475 279.57323,78.6430507 C279.57323,69.1617443 282.408558,61.2606557 288.0802,54.9397848 C293.750857,48.6189139 300.851,45.4574933 309.380629,45.4574933 C316.739872,45.4574933 323.343488,48.4898562 329.187535,54.5496562 L329.187535,47.2120867 Z" id="Fill-9" fill="#FFFFFF"></path>
                    <path d="M406.794057,78.9672711 C406.794057,72.8207759 405.147832,67.9057471 401.858339,64.2261254 C398.523528,60.4598085 394.259699,58.5771426 389.064881,58.5771426 C383.523282,58.5771426 379.150098,60.6331989 375.9473,64.7453116 C373.045965,68.4259185 371.59579,73.1882455 371.59579,79.0322926 C371.59579,84.7906296 373.045965,89.5105941 375.9473,93.1902158 C379.106751,97.2156333 383.480919,99.228342 389.064881,99.228342 C394.650812,99.228342 399.066358,97.1949447 402.312504,93.1251944 C405.300534,89.4455727 406.794057,84.7265933 406.794057,78.9672711 Z M420.820952,108.970719 C420.820952,111.956779 420.724405,114.587191 420.528355,116.860971 C420.334276,119.133765 420.063354,121.135637 419.716573,122.867572 C418.6782,127.629899 416.642833,131.721323 413.613425,135.141844 C407.898436,141.721815 400.040695,145.012294 390.039217,145.012294 C381.597268,145.012294 374.648842,142.739499 369.193938,138.192925 C363.564659,133.517293 360.317528,127.045691 359.451561,118.776148 L374.129656,118.776148 C374.691205,121.893235 375.622193,124.297058 376.921637,125.984659 C379.951044,129.924367 384.36659,131.894713 390.16926,131.894713 C400.862329,131.894713 406.208864,125.33543 406.208864,112.216865 L406.208864,103.384788 C400.408164,109.3175 393.718839,112.281886 386.142857,112.281886 C377.527518,112.281886 370.469738,109.164798 364.972471,102.930623 C359.429887,96.6097518 356.65958,88.7096484 356.65958,79.2273569 C356.65958,70.0061362 359.235808,62.170069 364.387279,55.7191553 C369.928878,48.8790981 377.246744,45.4575918 386.337921,45.4575918 C394.303046,45.4575918 400.927351,48.4239482 406.208864,54.3556757 L406.208864,47.2121852 L420.820952,47.2121852 L420.820952,108.970719 Z" id="Fill-11" fill="#FFFFFF"></path>
                    <path d="M479.205268,70.3306523 C477.1699,62.5379327 472.255857,58.6415729 464.463137,58.6415729 C462.687855,58.6415729 461.021927,58.9124955 459.463383,59.4533556 C457.904839,59.9952008 456.48619,60.7744728 455.210391,61.7911714 C453.932621,62.8088553 452.839079,64.0314552 451.929764,65.4599562 C451.021435,66.8894425 450.327873,68.5120226 449.852034,70.3306523 L479.205268,70.3306523 Z M494.207485,82.2798173 L448.877698,82.2798173 C449.267826,87.4746353 450.955428,91.6103922 453.943458,94.6841324 C456.930503,97.714525 460.761841,99.2287361 465.437473,99.2287361 C469.074732,99.2287361 472.083451,98.3637541 474.464615,96.6308345 C476.803416,94.8998853 479.465354,91.6961022 482.452399,87.0194853 L494.790707,93.9048604 C492.885382,97.1510059 490.872673,99.9331349 488.751596,102.248292 C486.629533,104.565419 484.356738,106.470744 481.933212,107.963281 C479.507716,109.457789 476.888141,110.550346 474.074486,111.242923 C471.260832,111.934514 468.20778,112.28228 464.918287,112.28228 C455.479343,112.28228 447.904347,109.252873 442.189357,103.190117 C436.474368,97.0859845 433.617366,88.9908168 433.617366,78.9026438 C433.617366,68.9021512 436.386687,60.8069835 441.929272,54.6151703 C447.514218,48.5110375 454.917794,45.4579859 464.139015,45.4579859 C473.446931,45.4579859 480.806174,48.4243422 486.218715,54.3550845 C491.585939,60.2434644 494.271521,68.4046388 494.271521,78.8386075 L494.207485,82.2798173 Z" id="Fill-13" fill="#FFFFFF"></path>
                    <path d="M556.877107,79.2924768 C556.877107,73.2316916 555.230882,68.2959742 551.941389,64.4863096 C548.606578,60.5899498 544.429444,58.6412773 539.409002,58.6412773 C534.038823,58.6412773 529.666624,60.5239432 526.289451,64.2912453 C522.955625,68.0151998 521.289697,72.864222 521.289697,78.838312 C521.289697,84.9857924 522.934936,89.9008212 526.225415,93.5794577 C529.514908,97.3457747 533.844744,99.2284405 539.212952,99.2284405 C544.278713,99.2284405 548.47752,97.3457747 551.811346,93.5794577 C555.18852,89.7707784 556.877107,85.0074662 556.877107,79.2924768 Z M522.133005,0.77910307 L522.133005,54.5498533 C527.979023,48.4890681 534.602342,45.4576903 542.005918,45.4576903 C550.534562,45.4576903 557.634705,48.6407848 563.306347,55.0050033 C568.977003,61.3268593 571.813317,69.205289 571.813317,78.6432477 C571.813317,88.3846397 568.956315,96.4364599 563.241325,102.800678 C557.568698,109.122534 550.404519,112.281985 541.746818,112.281985 C534.428951,112.281985 527.891342,109.46833 522.133005,103.840036 L522.133005,110.46434 L507.521903,110.46434 L507.521903,0.77910307 L522.133005,0.77910307 Z" id="Fill-15" fill="#EF5A2F"></path>
                    <path d="M596.558305,78.6430507 C596.558305,84.9649067 598.246891,89.9646604 601.624065,93.6452673 C605.086949,97.3682366 609.654211,99.2292287 615.325853,99.2292287 C621.040842,99.2292287 625.608105,97.3889252 629.028626,93.7093036 C632.448162,90.030667 634.159408,85.1156382 634.159408,78.9671726 C634.159408,72.8206774 632.448162,67.9066337 629.028626,64.2260269 C625.563772,60.5030576 620.997495,58.6410803 615.325853,58.6410803 C609.741892,58.6410803 605.216991,60.5030576 601.753123,64.2260269 C598.289254,67.9499814 596.558305,72.7556559 596.558305,78.6430507 M581.622095,78.3829649 C581.622095,69.2494247 584.889914,61.4773938 591.427523,55.0688425 C597.965132,48.6622615 605.931242,45.4574933 615.325853,45.4574933 C624.763812,45.4574933 632.773269,48.6839353 639.354226,55.1348491 C645.848487,61.586748 649.094633,69.5095104 649.094633,78.9031364 C649.094633,88.3844427 645.825828,96.3288789 639.289205,102.736445 C632.707263,109.099678 624.633769,112.282773 615.065767,112.282773 C605.585446,112.282773 597.640025,109.035642 591.233444,102.541381 C584.825878,96.1347998 581.622095,88.0819946 581.622095,78.3829649" id="Fill-17" fill="#EF5A2F"></path>
                    <path d="M673.840508,78.6430507 C673.840508,84.9649067 675.529094,89.9646604 678.906268,93.6452673 C682.369151,97.3682366 686.936414,99.2292287 692.608056,99.2292287 C698.323045,99.2292287 702.890308,97.3889252 706.310829,93.7093036 C709.730365,90.030667 711.441611,85.1156382 711.441611,78.9671726 C711.441611,72.8206774 709.730365,67.9066337 706.310829,64.2260269 C702.845975,60.5030576 698.279698,58.6410803 692.608056,58.6410803 C687.024095,58.6410803 682.499194,60.5030576 679.035325,64.2260269 C675.571457,67.9499814 673.840508,72.7556559 673.840508,78.6430507 M658.904297,78.3829649 C658.904297,69.2494247 662.172117,61.4773938 668.709726,55.0688425 C675.247335,48.6622615 683.213445,45.4574933 692.608056,45.4574933 C702.046015,45.4574933 710.055472,48.6839353 716.636429,55.1348491 C723.13069,61.586748 726.376836,69.5095104 726.376836,78.9031364 C726.376836,88.3844427 723.108031,96.3288789 716.571407,102.736445 C709.989466,109.099678 701.915972,112.282773 692.34797,112.282773 C682.867649,112.282773 674.922228,109.035642 668.515647,102.541381 C662.108081,96.1347998 658.904297,88.0819946 658.904297,78.3829649" id="Fill-19" fill="#EF5A2F"></path>
                    <polygon id="Fill-21" fill="#EF5A2F" points="753.78386 0.778807518 753.78386 67.6681233 774.370038 47.2119881 793.982865 47.2119881 766.512297 73.7722561 795.996559 110.464045 777.033946 110.464045 756.121676 83.7737339 753.78386 86.1115497 753.78386 110.464045 739.172757 110.464045 739.172757 0.778807518"></polygon>
                </g>
                <g id="Group-2">
                    <path d="M144.325107,25.7488794 C177.343185,58.7649869 177.343185,112.295355 144.325107,145.313433 C127.370277,162.267277 94.776809,185.555785 84.5428304,205.093739 C74.3118073,185.604059 40.8238018,161.371755 24.762524,145.313433 C-8.25358357,112.295355 -8.25358357,58.7649869 24.762524,25.7488794 C57.7786316,-7.26919856 111.309,-7.26919856 144.325107,25.7488794 Z M84.5388897,185.839515 C91.0390621,170.887542 119.733215,150.641249 134.69898,135.674499 C162.402049,107.972415 162.402049,63.0573863 134.69898,35.3553027 C106.995912,7.65321905 62.0818679,7.65321905 34.3787991,35.3553027 C6.67671543,63.0573863 6.67671543,107.972415 34.3787991,135.674499 C47.1151175,148.409832 78.6889316,170.564406 84.5388897,185.839515 Z" id="Combined-Shape" fill="#EE5B2F"></path>
                    <path d="M142.094971,84.9263583 C142.095956,85.078075 142.093,85.2327472 142.093,85.3844638 C142.093986,85.4829811 142.093,85.5795281 142.09103,85.6780454 C142.012216,100.303926 136.399685,114.904192 125.240629,126.062263 C113.097384,138.205507 90.3891434,152.463918 84.5391853,166.767647 C78.6892271,152.463918 54.1722083,136.395744 43.837742,126.062263 C32.7013448,114.926851 27.0888134,100.359096 26.9873405,85.7647407 C26.984385,85.6140092 26.9824147,85.465248 26.9853702,85.3145165 C26.9853702,85.1844737 26.9824147,85.0544308 27.0040885,84.9263583 C27.1449682,82.0762524 28.2956505,79.2645682 30.4807645,77.0883208 C35.1554111,72.4323925 42.7343481,72.4323925 47.4089946,77.0883208 C49.5941087,79.2645682 50.7447909,82.0762524 50.9290183,84.9263583 C50.7773016,93.7259248 54.0490616,102.57475 60.7640018,109.28969 C73.8934043,122.419093 95.1820107,122.419093 108.313384,109.28969 C114.8372,102.764888 118.102064,94.2263928 118.141471,85.6750899 C118.140486,85.5519433 118.142456,85.4287966 118.144426,85.3066351 C118.143441,85.1795478 118.149352,85.0524605 118.162159,84.9263583 C118.304024,82.0732969 119.454707,79.2596424 121.643761,77.0794542 C126.323334,72.4215556 133.910152,72.4215556 138.589725,77.0794542 C140.778779,79.2596424 141.929462,82.0732969 142.094971,84.9263583 Z M69.6577508,70.6347471 C77.8760652,62.4154475 91.200532,62.4154475 99.4198315,70.6347471 C107.638146,78.8530614 107.638146,92.176543 99.4198315,100.394857 C91.200532,108.614157 77.8760652,108.614157 69.6577508,100.394857 C61.4394365,92.176543 61.4394365,78.8530614 69.6577508,70.6347471 Z" id="Combined-Shape" fill="#FFFFFF"></path>
                    <path d="M124.277425,43.8765578 C101.732723,22.341658 65.9995074,22.6539579 43.8390227,44.8144426 C39.1860499,49.5511551 39.1860499,57.0995517 43.8606965,61.7544949 C48.5343579,66.4114083 56.1142801,66.4114083 60.7879415,61.7544949 C60.8785774,61.6648441 60.9554209,61.567312 61.0421162,61.476676 C74.1931925,48.6162258 95.2729422,48.6999655 108.313679,61.7397173 C108.354071,61.7820797 108.391508,61.8244421 108.4319,61.8648342 L108.536328,61.7604059 C113.21196,66.409438 120.784986,66.4084528 125.457662,61.7544949 C130.133294,57.0995517 130.133294,49.5511551 125.457662,44.8932565 C125.084282,44.520861 124.685286,44.1878725 124.277425,43.8765578 Z" id="Fill-31" fill="#EE5B2F"></path>
                </g>
            </g>
        </g>
    </g>
</svg>