<?xml version="1.0" encoding="UTF-8"?>
<svg width="170px" height="206px" viewBox="0 0 170 206" version="1.1" xmlns="http://www.w3.org/2000/svg" xmlns:xlink="http://www.w3.org/1999/xlink">
    <g id="MB-Logo-Inverted" stroke="none" stroke-width="1" fill="none" fill-rule="evenodd">
        <g id="PU-Search" transform="translate(-53.000000, -35.000000)">
            <g id="MB_Logo_Green_Icon_Square">
                <g id="MB_Logo_Green_Icon" transform="translate(53.000000, 35.000000)">
                    <g id="Group-2">
                        <path d="M144.325107,25.7488794 C177.343185,58.7649869 177.343185,112.295355 144.325107,145.313433 C127.370277,162.267277 94.776809,185.555785 84.5428304,205.093739 C74.3118073,185.604059 40.8238018,161.371755 24.762524,145.313433 C-8.25358357,112.295355 -8.25358357,58.7649869 24.762524,25.7488794 C57.7786316,-7.26919856 111.309,-7.26919856 144.325107,25.7488794 Z M84.5388897,185.839515 C91.0390621,170.887542 119.733215,150.641249 134.69898,135.674499 C162.402049,107.972415 162.402049,63.0573863 134.69898,35.3553027 C106.995912,7.65321905 62.0818679,7.65321905 34.3787991,35.3553027 C6.67671543,63.0573863 6.67671543,107.972415 34.3787991,135.674499 C47.1151175,148.409832 78.6889316,170.564406 84.5388897,185.839515 Z" id="Combined-Shape" fill="#00BCC0"></path>
                        <path d="M142.094971,84.9263583 C142.095956,85.078075 142.093,85.2327472 142.093,85.3844638 C142.093986,85.4829811 142.093,85.5795281 142.09103,85.6780454 C142.012216,100.303926 136.399685,114.904192 125.240629,126.062263 C113.097384,138.205507 90.3891434,152.463918 84.5391853,166.767647 C78.6892271,152.463918 54.1722083,136.395744 43.837742,126.062263 C32.7013448,114.926851 27.0888134,100.359096 26.9873405,85.7647407 C26.984385,85.6140092 26.9824147,85.465248 26.9853702,85.3145165 C26.9853702,85.1844737 26.9824147,85.0544308 27.0040885,84.9263583 C27.1449682,82.0762524 28.2956505,79.2645682 30.4807645,77.0883208 C35.1554111,72.4323925 42.7343481,72.4323925 47.4089946,77.0883208 C49.5941087,79.2645682 50.7447909,82.0762524 50.9290183,84.9263583 C50.7773016,93.7259248 54.0490616,102.57475 60.7640018,109.28969 C73.8934043,122.419093 95.1820107,122.419093 108.313384,109.28969 C114.8372,102.764888 118.102064,94.2263928 118.141471,85.6750899 C118.140486,85.5519433 118.142456,85.4287966 118.144426,85.3066351 C118.143441,85.1795478 118.149352,85.0524605 118.162159,84.9263583 C118.304024,82.0732969 119.454707,79.2596424 121.643761,77.0794542 C126.323334,72.4215556 133.910152,72.4215556 138.589725,77.0794542 C140.778779,79.2596424 141.929462,82.0732969 142.094971,84.9263583 Z M69.6577508,70.6347471 C77.8760652,62.4154475 91.200532,62.4154475 99.4198315,70.6347471 C107.638146,78.8530614 107.638146,92.176543 99.4198315,100.394857 C91.200532,108.614157 77.8760652,108.614157 69.6577508,100.394857 C61.4394365,92.176543 61.4394365,78.8530614 69.6577508,70.6347471 Z" id="Combined-Shape" fill="#FFFFFF"></path>
                        <path d="M124.277425,43.8765578 C101.732723,22.341658 65.9995074,22.6539579 43.8390227,44.8144426 C39.1860499,49.5511551 39.1860499,57.0995517 43.8606965,61.7544949 C48.5343579,66.4114083 56.1142801,66.4114083 60.7879415,61.7544949 C60.8785774,61.6648441 60.9554209,61.567312 61.0421162,61.476676 C74.1931925,48.6162258 95.2729422,48.6999655 108.313679,61.7397173 C108.354071,61.7820797 108.391508,61.8244421 108.4319,61.8648342 L108.536328,61.7604059 C113.21196,66.409438 120.784986,66.4084528 125.457662,61.7544949 C130.133294,57.0995517 130.133294,49.5511551 125.457662,44.8932565 C125.084282,44.520861 124.685286,44.1878725 124.277425,43.8765578 Z" id="Fill-31" fill="#00BCC0"></path>
                    </g>
                </g>
            </g>
        </g>
    </g>
</svg>