<?xml version="1.0" encoding="UTF-8"?>
<svg width="1100px" height="1100px" viewBox="0 0 1100 1100" version="1.1" xmlns="http://www.w3.org/2000/svg" xmlns:xlink="http://www.w3.org/1999/xlink">
    <!-- Generator: Sketch 52.1 (67048) - http://www.bohemiancoding.com/sketch -->
    <title>Business App</title>
    <desc>Created with Sketch.</desc>
    <g id="Business-App" stroke="none" stroke-width="1" fill="none" fill-rule="evenodd">
        <g id="MB_Logo_Orange" transform="translate(52.000000, 192.000000)">
            <g id="Group-3" transform="translate(0.000000, 501.000000)">
                <path d="M0,58.1850752 L18.3576863,58.1850752 L18.3576863,65.4682499 C21.8913429,61.7990422 24.9113506,59.3181226 27.4127586,58.0230359 C30.0787818,56.6763912 33.4230691,56 37.4493335,56 C46.4239548,56 53.5209729,59.8840325 58.7428633,67.6520975 C64.5081076,59.8840325 72.3130947,56 82.1590625,56 C100.052608,56 109,66.762109 109,88.286327 L109,137 L90.5618627,137 L90.5618627,93.2223872 C90.5618627,85.6716022 89.6372948,80.3304437 87.7881589,77.201367 C85.8845638,74.0182772 82.7556378,72.427346 78.4063316,72.427346 C73.3478187,72.427346 69.661924,74.3165767 67.3498853,78.0913555 C65.0378466,81.8673618 63.883065,87.9364694 63.883065,96.2986785 L63.883065,137 L45.4449277,137 L45.4449277,93.4654462 C45.4449277,79.4392277 41.3654418,72.427346 33.2064701,72.427346 C28.0378012,72.427346 24.2714555,74.3423557 21.9061954,78.1723751 C19.5396975,82.0023945 18.3576863,88.0432681 18.3576863,96.2986785 L18.3576863,137 L0,137 L0,58.1850752 Z" id="Fill-1" fill="#4A4C51"></path>
                <path d="M143.817956,97.7145553 C143.817956,105.334257 145.863467,111.5385 149.954489,116.326046 C154.153496,121.170556 159.446007,123.591573 165.827058,123.591573 C172.645014,123.591573 178.153496,121.252289 182.354986,116.572482 C186.553993,111.727971 188.654117,105.579455 188.654117,98.1219796 C188.654117,90.6682195 186.553993,84.518465 182.354986,79.6751928 C178.153496,74.9384205 172.700869,72.5718919 165.990898,72.5718919 C159.663219,72.5718919 154.37319,74.9681414 150.118329,79.7556869 C145.916839,84.6001975 143.817956,90.5852486 143.817956,97.7145553 Z M187.508482,58.2055402 L206,58.2055402 L206,137.713966 L187.508482,137.713966 L187.508482,129.387153 C179.927182,136.461972 171.771204,140 163.045511,140 C152.026065,140 142.91808,136.027303 135.719073,128.080671 C128.572197,119.973051 125,109.850599 125,97.7145553 C125,85.7964647 128.572197,75.8647226 135.719073,67.9193289 C142.862226,59.9739352 151.807613,56 162.555234,56 C171.825817,56 180.145635,59.8117085 187.508482,67.4289337 L187.508482,58.2055402 Z" id="Fill-3" fill="#4A4C51"></path>
                <path d="M271.834017,71.7560372 L256.578691,79.8365325 C254.172378,74.9386997 251.192482,72.4916409 247.639003,72.4916409 C245.943137,72.4916409 244.493626,73.0489164 243.292958,74.1634675 C242.088558,75.2804954 241.487602,76.7083591 241.487602,78.4495356 C241.487602,81.498452 245.041081,84.5188854 252.150528,87.5120743 C261.936283,91.701548 268.525648,95.5665635 271.914891,99.1021672 C275.305379,102.640248 277,107.401858 277,113.388235 C277,121.0613 274.156968,127.483591 268.470903,132.65387 C262.94783,137.551703 256.277591,140 248.458941,140 C235.062473,140 225.576574,133.497214 220,120.491641 L235.746791,113.224768 C237.932878,117.035294 239.601371,119.457585 240.749782,120.491641 C242.990614,122.558514 245.670654,123.591331 248.787414,123.591331 C255.019689,123.591331 258.136449,120.762848 258.136449,115.102167 C258.136449,111.836533 255.73138,108.790093 250.918755,105.959133 C249.059897,105.035294 247.201039,104.136223 245.342181,103.265635 C243.483323,102.396285 241.595848,101.498452 239.683489,100.573375 C234.324653,97.9603715 230.550947,95.3486068 228.364861,92.7356037 C225.576574,89.4167183 224.181808,85.1442724 224.181808,79.9195046 C224.181808,73.0092879 226.560748,67.2941176 231.318628,62.7764706 C236.183511,58.2600619 242.088558,56 249.033768,56 C259.257487,56 266.857155,61.2544892 271.834017,71.7560372" id="Fill-5" fill="#4A4C51"></path>
                <path d="M335.834017,71.7560372 L320.578691,79.8365325 C318.172378,74.9386997 315.192482,72.4916409 311.640247,72.4916409 C309.943137,72.4916409 308.49487,73.0489164 307.292958,74.1634675 C306.089802,75.2804954 305.487602,76.7083591 305.487602,78.4495356 C305.487602,81.498452 309.042325,84.5188854 316.150528,87.5120743 C325.937527,91.701548 332.525648,95.5665635 335.916136,99.1021672 C339.305379,102.640248 341,107.401858 341,113.388235 C341,121.0613 338.156968,127.483591 332.470903,132.65387 C326.94783,137.551703 320.277591,140 312.460185,140 C299.062473,140 289.576574,133.497214 284,120.491641 L299.746791,113.224768 C301.934122,117.035294 303.602615,119.457585 304.751026,120.491641 C306.990614,122.558514 309.671898,123.591331 312.788658,123.591331 C319.019689,123.591331 322.137693,120.762848 322.137693,115.102167 C322.137693,111.836533 319.73138,108.790093 314.919999,105.959133 C313.059897,105.035294 311.201039,104.136223 309.343425,103.265635 C307.483323,102.396285 305.597092,101.498452 303.683489,100.573375 C298.325897,97.9603715 294.552192,95.3486068 292.364861,92.7356037 C289.576574,89.4167183 288.183052,85.1442724 288.183052,79.9195046 C288.183052,73.0092879 290.560748,67.2941176 295.318628,62.7764706 C300.184755,58.2600619 306.089802,56 313.033768,56 C323.257487,56 330.8584,61.2544892 335.834017,71.7560372" id="Fill-7" fill="#4A4C51"></path>
                <path d="M368.817956,97.7145553 C368.817956,105.334257 370.862226,111.5385 374.954489,116.326046 C379.153496,121.170556 384.446007,123.591573 390.825817,123.591573 C397.645014,123.591573 403.153496,121.252289 407.354986,116.572482 C411.553993,111.727971 413.654117,105.579455 413.654117,98.1219796 C413.654117,90.6682195 411.553993,84.518465 407.354986,79.6751928 C403.153496,74.9384205 397.699628,72.5718919 390.990898,72.5718919 C384.663219,72.5718919 379.371949,74.9681414 375.117087,79.7556869 C370.916839,84.6001975 368.817956,90.5852486 368.817956,97.7145553 Z M412.508482,58.2055402 L431,58.2055402 L431,137.713966 L412.508482,137.713966 L412.508482,129.387153 C404.927182,136.461972 396.771204,140 388.045511,140 C377.026065,140 367.916839,136.027303 360.717832,128.080671 C353.572197,119.973051 350,109.850599 350,97.7145553 C350,85.7964647 353.572197,75.8647226 360.717832,67.9193289 C367.862226,59.9739352 376.807613,56 387.553993,56 C396.825817,56 405.145635,59.8117085 412.508482,67.4289337 L412.508482,58.2055402 Z" id="Fill-9" fill="#4A4C51"></path>
                <path d="M509.51048,98.074456 C509.51048,90.3569711 507.457875,84.1857045 503.35635,79.5656042 C499.19832,74.8366501 493.881938,72.4727915 487.404748,72.4727915 C480.495171,72.4727915 475.04244,75.0543576 471.049012,80.2174898 C467.431465,84.8388272 465.623305,90.8183626 465.623305,98.1560963 C465.623305,105.386213 467.431465,111.312559 471.049012,115.932659 C474.988392,120.986938 480.442351,123.514077 487.404748,123.514077 C494.369601,123.514077 499.875152,120.960961 503.922628,115.851019 C507.648272,111.230918 509.51048,105.30581 509.51048,98.074456 Z M527,135.746519 C527,139.495789 526.87962,142.798512 526.635174,145.653449 C526.393186,148.50715 526.055384,151.020682 525.622998,153.195284 C524.328297,159.174819 521.790486,164.311975 518.013251,168.606751 C510.887481,176.868505 501.090009,181 488.619605,181 C478.093709,181 469.430021,178.146299 462.628541,172.437661 C455.60964,166.56698 451.560935,158.441293 450.481198,148.058128 L468.782671,148.058128 C469.482841,151.971916 470.64365,154.990134 472.263869,157.109071 C476.041104,162.055733 481.546655,164.529682 488.78175,164.529682 C502.114469,164.529682 508.780828,156.293905 508.780828,139.822351 L508.780828,128.732873 C501.54819,136.181934 493.207564,139.903991 483.761405,139.903991 C473.019316,139.903991 464.219279,135.990203 457.364979,128.162628 C450.454174,120.226198 447,110.306898 447,98.4010173 C447,86.8229345 450.212185,76.9840381 456.635328,68.884328 C463.544905,60.296013 472.669231,56 484.004622,56 C493.935987,56 502.195541,59.7245307 508.780828,67.1723551 L508.780828,58.2030519 L527,58.2030519 L527,135.746519 Z" id="Fill-11" fill="#4A4C51"></path>
                <path d="M600.382324,87.2656347 C597.820369,77.469969 591.634973,72.5721362 581.826135,72.5721362 C579.591555,72.5721362 577.494621,72.9126935 575.532853,73.5925697 C573.571086,74.2736842 571.785406,75.2532508 570.179534,76.5312693 C568.571182,77.8105263 567.194721,79.3473684 566.05015,81.1430341 C564.906819,82.9399381 564.03382,84.9795666 563.434873,87.2656347 L600.382324,87.2656347 Z M619.265887,102.286068 L562.208458,102.286068 C562.69952,108.816099 564.823735,114.014861 568.584823,117.878638 C572.344671,121.687926 577.167246,123.591331 583.052549,123.591331 C587.630834,123.591331 591.417963,122.504025 594.415177,120.325697 C597.359069,118.149845 600.709698,114.122601 604.469546,108.243963 L620,116.899071 C617.601733,120.979567 615.0683,124.47678 612.39846,127.386997 C609.727381,130.29969 606.866573,132.694737 603.816037,134.570898 C600.763021,136.449536 597.465713,137.82291 593.924115,138.693498 C590.382517,139.562848 586.539585,140 582.39904,140 C570.518069,140 560.983283,136.19195 553.789722,128.570898 C546.596161,120.897833 543,110.721981 543,98.0408669 C543,85.469969 546.485796,75.2941176 553.462347,67.5108359 C560.492221,59.8377709 569.811238,56 581.418156,56 C593.1342,56 602.397414,59.7287926 609.210278,67.1839009 C615.9661,74.5857585 619.346491,84.844582 619.346491,97.9603715 L619.265887,102.286068 Z" id="Fill-13" fill="#4A4C51"></path>
                <path d="M697.182044,98.5792668 C697.182044,90.969509 695.107985,84.7723558 690.963591,79.9890441 C686.762102,75.0968802 681.499379,72.6501798 675.174183,72.6501798 C668.408357,72.6501798 662.899876,75.0140041 658.645014,79.7441267 C654.444766,84.4198231 652.345883,90.5081242 652.345883,98.0090298 C652.345883,105.72764 654.418701,111.898817 658.564336,116.517613 C662.70873,121.246499 668.163839,123.610323 674.927182,123.610323 C681.309475,123.610323 686.599504,121.246499 690.799752,116.517613 C695.054613,111.735539 697.182044,105.754853 697.182044,98.5792668 Z M653.408357,0 L653.408357,67.5130985 C660.773686,59.9033407 669.118329,56.0972248 678.446007,56.0972248 C689.191146,56.0972248 698.136533,60.093832 705.282168,68.0845725 C712.426562,76.0221239 716,85.9140668 716,97.7641124 C716,109.995141 712.400496,120.104788 705.200248,128.095528 C698.053372,136.03308 689.027307,140 678.11957,140 C668.899876,140 660.663219,136.467252 653.408357,129.400518 L653.408357,137.717815 L635,137.717815 L635,0 L653.408357,0 Z" id="Fill-15" fill="#EF5A2F"></path>
                <path d="M746.816216,97.7145553 C746.816216,105.661187 748.94345,111.945924 753.197918,116.572482 C757.560361,121.252289 763.31407,123.591573 770.459044,123.591573 C777.658626,123.591573 783.412335,121.278295 787.721411,116.652976 C792.029246,112.028895 794.185025,105.850658 794.185025,98.1219796 C794.185025,90.3957777 792.029246,84.218779 787.721411,79.5922218 C783.356486,74.9124147 777.604018,72.5718919 770.459044,72.5718919 C763.424527,72.5718919 757.724185,74.9124147 753.360501,79.5922218 C748.996817,84.2732674 746.816216,90.3140452 746.816216,97.7145553 M728,97.3876251 C728,85.9066798 732.116707,76.1371644 740.352602,68.0815556 C748.588497,60.0284236 758.623978,56 770.459044,56 C782.348718,56 792.438807,60.0556678 800.72931,68.1645265 C808.910597,76.2746237 813,86.23361 813,98.0414855 C813,109.959576 808.882052,119.945806 800.647398,128.000177 C792.355654,135.998821 782.184894,140 770.131395,140 C758.188354,140 748.178936,135.918326 740.108107,127.754979 C732.036036,119.701847 728,109.579396 728,97.3876251" id="Fill-17" fill="#EF5A2F"></path>
                <path d="M843.816216,97.7145553 C843.816216,105.661187 845.94345,111.945924 850.197918,116.572482 C854.560361,121.252289 860.31407,123.591573 867.459044,123.591573 C874.658626,123.591573 880.412335,121.278295 884.721411,116.652976 C889.029246,112.028895 891.185025,105.850658 891.185025,98.1219796 C891.185025,90.3957777 889.029246,84.218779 884.721411,79.5922218 C880.356486,74.9124147 874.604018,72.5718919 867.459044,72.5718919 C860.424527,72.5718919 854.724185,74.9124147 850.360501,79.5922218 C845.996817,84.2732674 843.816216,90.3140452 843.816216,97.7145553 M825,97.3876251 C825,85.9066798 829.116707,76.1371644 837.352602,68.0815556 C845.588497,60.0284236 855.623978,56 867.459044,56 C879.348718,56 889.438807,60.0556678 897.72931,68.1645265 C905.910597,76.2746237 910,86.23361 910,98.0414855 C910,109.959576 905.882052,119.945806 897.647398,128.000177 C889.355654,135.998821 879.184894,140 867.131395,140 C855.188354,140 845.178936,135.918326 837.108107,127.754979 C829.036036,119.701847 825,109.579396 825,97.3876251" id="Fill-19" fill="#EF5A2F"></path>
                <polygon id="Fill-21" fill="#EF5A2F" points="944.256228 0 944.256228 83.5466695 969.978172 57.9963713 994.483937 57.9963713 960.16011 91.1709061 997 137 973.306663 137 947.177274 103.663038 944.256228 106.583037 944.256228 137 926 137 926 0"></polygon>
            </g>
            <g id="Group-2" transform="translate(318.000000, 0.000000)">
                <path d="M307.276747,52.5339469 C236.983272,-17.5113156 123.013581,-17.5113156 52.7201063,52.5339469 C-17.5733688,122.575029 -17.5733688,236.135506 52.7201063,306.180769 C86.9156281,340.24724 158.213805,391.654172 179.996329,433 C201.785146,391.551764 271.178794,342.147021 307.276747,306.180769 C377.574418,236.135506 377.574418,122.575029 307.276747,52.5339469" id="Path" fill="#EE5B2F"></path>
                <path d="M179.999214,392 C167.546708,359.534073 100.33715,312.446438 73.2260028,285.378586 C14.2579991,226.500198 14.2579991,131.03718 73.2260028,72.1587913 C132.196104,13.2804029 227.802323,13.2804029 286.772424,72.1587913 C345.742525,131.03718 345.742525,226.500198 286.772424,285.378586 C254.915568,317.189123 193.835797,360.220872 179.999214,392 Z" id="Path" fill="#FFFFFF"></path>
                <path d="M301.999572,178.392811 C302.001669,178.714643 301.995378,179.042743 301.995378,179.364575 C301.997475,179.573556 301.995378,179.778358 301.991185,179.98734 C301.823439,211.012731 289.877865,241.983787 266.127202,265.65303 C240.281818,291.412088 191.950153,321.657978 179.499245,352 C167.048337,321.657978 114.866913,287.573098 92.871288,265.65303 C69.1688523,242.031853 57.2232777,211.129761 57.0073054,180.171243 C57.0010149,179.851502 56.9968213,179.53594 57.0031117,179.216198 C57.0031117,178.940343 56.9968213,178.664487 57.0429513,178.392811 C57.3427963,172.346977 59.7918802,166.382645 64.4426236,161.766244 C74.3920271,151.889779 90.5228513,151.889779 100.472255,161.766244 C105.122998,166.382645 107.572082,172.346977 107.964187,178.392811 C107.641277,197.059037 114.604811,215.829754 128.896726,230.073932 C156.841025,257.924895 202.151175,257.924895 230.099668,230.073932 C243.984799,216.233089 250.933656,198.120663 251.017528,179.98107 C251.015432,179.719843 251.019625,179.458617 251.023819,179.19948 C251.021722,178.929893 251.034303,178.660307 251.061562,178.392811 C251.363504,172.340707 253.812587,166.372196 258.471718,161.747436 C268.431606,151.866791 284.579204,151.866791 294.539092,161.747436 C299.198223,166.372196 301.647307,172.340707 301.999572,178.392811 Z M147.825964,148.076494 C165.317623,130.641169 193.677093,130.641169 211.170849,148.076494 C228.662508,165.509729 228.662508,193.772385 211.170849,211.205621 C193.677093,228.640946 165.317623,228.640946 147.825964,211.205621 C130.334304,193.772385 130.334304,165.509729 147.825964,148.076494 Z" id="Combined-Shape" fill="#4A4C51"></path>
                <path d="M264.002946,90.7266606 C215.916225,45.1053015 139.699066,45.7669041 92.4318612,92.7135554 C82.5073032,102.748209 82.5073032,118.739373 92.4780904,128.6008 C102.446776,138.4664 118.614371,138.4664 128.583057,128.6008 C128.776378,128.410876 128.940282,128.204255 129.125198,128.012245 C157.175786,100.767575 202.137837,100.944977 229.953076,128.569493 C230.03923,128.659238 230.119081,128.748982 230.205235,128.834552 L230.427975,128.613322 C240.400864,138.462226 256.553749,138.460139 266.520334,128.6008 C276.493222,118.739373 276.493222,102.748209 266.520334,92.8805214 C265.723931,92.0916072 264.872895,91.3861761 264.002946,90.7266606 Z" id="Fill-31" fill="#EE5B2F"></path>
            </g>
        </g>
    </g>
</svg>